<svg width="66" height="20" viewBox="0 0 66 20" fill="none" xmlns="http://www.w3.org/2000/svg">
<g clip-path="url(#clip0)">
<path fill-rule="evenodd" clip-rule="evenodd" d="M12.8561 5.02539C10.0209 5.02539 7.94516 7.11165 7.94516 10.0085C7.94516 11.138 8.26159 12.1346 8.8185 12.9452H1.76851C1.22426 12.9452 0.793915 13.4103 0.793915 13.9684V14.9916H12.8561H12.8688C15.704 14.9916 17.7671 12.9053 17.7671 10.0085C17.7544 7.11165 15.704 5.02539 12.8561 5.02539ZM12.8435 13.2508C11.1474 13.2508 9.90701 11.9087 9.90701 10.0085C9.90701 8.13485 11.1347 6.76616 12.8435 6.76616C14.5648 6.76616 15.7926 8.13485 15.7926 10.0085C15.7926 11.9087 14.5648 13.2508 12.8435 13.2508ZM29.3869 10.0085C29.3869 12.9053 27.3365 14.9916 24.4886 14.9916C21.6534 14.9916 19.5776 12.9053 19.5776 10.0085C19.5776 7.11165 21.6534 5.02539 24.4886 5.02539C27.3238 5.02539 29.3869 7.11165 29.3869 10.0085ZM21.5395 10.0085C21.5395 11.9087 22.7672 13.2508 24.4759 13.2508C26.1973 13.2508 27.4251 11.9087 27.4251 10.0085C27.4251 8.13485 26.1973 6.76616 24.4759 6.76616C22.7672 6.76616 21.5395 8.13485 21.5395 10.0085ZM39.7537 9.26435V13.9684H39.7157V14.9916H38.7411C38.2095 14.9916 37.7665 14.5398 37.7665 13.9684V9.26435C37.7665 7.72291 36.8552 6.713 35.4503 6.713C34.0453 6.713 33.134 7.7362 33.134 9.26435V14.9916H32.1594C31.6278 14.9916 31.1848 14.5398 31.1848 13.9684V9.26435C31.1848 6.73958 32.9188 5.02539 35.4503 5.02539C38.007 5.02539 39.7537 6.73958 39.7537 9.26435ZM50.119 5.84926V5.02539H49.1571C48.6128 5.02539 48.1825 5.49048 48.1825 6.04859V10.7659C48.1825 12.2941 47.2458 13.2907 45.8409 13.2907C44.4359 13.2907 43.5246 12.2941 43.5246 10.7659V9.59656V6.24791V5.84926V5.02539H42.5627C42.0184 5.02539 41.5881 5.47719 41.5881 6.04859V10.7792C41.5881 13.2907 43.3221 14.9916 45.8662 14.9916C48.3976 14.9916 50.1317 13.2774 50.1317 10.7792V8.37404V6.24791L50.119 5.84926ZM58.7647 6.87246C59.3343 5.71638 60.4987 5.02539 61.9796 5.02539C64.1566 5.02539 65.5869 6.55354 65.5742 8.87899V14.9916H64.5996C64.068 14.9916 63.625 14.5398 63.625 13.9684V8.82584C63.625 7.53688 62.8656 6.65985 61.6885 6.65985C60.5114 6.65985 59.7266 7.53688 59.7266 8.82584V12.3074V13.7691V14.1677V14.8454V14.9916H58.7647C58.2331 14.9916 57.7901 14.5398 57.7901 13.9684V8.82584C57.7901 7.53688 57.0053 6.65985 55.8282 6.65985C54.6511 6.65985 53.8917 7.53688 53.8917 8.82584V13.9551V14.9783H52.9171C52.3855 14.9783 51.9425 14.5265 51.9425 13.9551V8.87899C51.9425 6.55354 53.3601 5.02539 55.5498 5.02539C57.0307 5.02539 58.1951 5.71638 58.7647 6.87246Z" fill="black"/>
</g>
<defs>
<clipPath id="clip0">
<rect width="64.7804" height="19.7844" fill="white" transform="translate(0.793945 0.0424805)"/>
</clipPath>
</defs>
</svg>
